    <svg xmlns="http://www.w3.org/2000/svg" class="siteIcon" viewBox="0 0 512 512">
        <path fill="#fff"
            d="M374.65 399.95c-37.6 0-73.75-14.58-100.83-40.68-59.37-57.08-62.34-151.14-6.67-211.82 54.37-59.53 146.72-63.75 206.25-9.37a146.051 146.051 0 0 1 27.08 33.23l-62.81 39.32c-20.57-34.69-65.36-46.09-100.05-25.52-6.2 3.65-11.77 8.23-16.61 13.54-27.76 30.36-26.3 77.29 3.33 105.83 14.11 13.7 33.18 20.99 52.81 20.31 26.93-1.04 51.2-16.61 63.33-40.68L506 318.43c-24.06 48.28-72.6 79.53-126.51 81.51h-4.84Z"
            opacity=".6" style="isolation:isolate" />
        <path fill="#fff"
            d="M301 247.24c-.89-81.04-66.46-146.51-147.5-147.34-82.13.73-148.12 67.86-147.5 150-.57 82.08 65.42 149.17 147.5 150 25.99-.05 51.51-7.08 73.85-20.31v20.31H301V247.24Zm-147.5 77.5c-41.41.63-75.52-32.4-76.15-73.8-.63-41.41 32.4-75.52 73.8-76.15 41.41-.63 75.52 32.4 76.15 73.8v1.3c.31 41.09-32.76 74.58-73.8 74.84Z" />
    </svg>